<svg xmlns="http://www.w3.org/2000/svg" version="1.1" xmlns:xlink="http://www.w3.org/1999/xlink" xmlns:svgjs="http://svgjs.dev/svgjs" width="100%" height="100%" viewBox="0 0 1000 600"><rect width="1000" height="600" x="0" y="0" fill="white"/><g><rect width="333.3333333333333" height="333.3333333333333" rx="13.333333333333334" ry="13.333333333333334" y="221.8319303978625" fill="hsl(329, 78%, 60%)" transform="matrix(0.626222058124309,0,0,0.6262220581243089,0,56.71361018968291)" x="199.60975646972656"/><path d="M366.2608267058031 463.49859035203673L366.2608267058031 463.49859035203673Q338.65633521510046 463.49859035203673 325.6182816070624 439.91780440065685L325.6182816070624 439.91780440065685L339.0930164364223 430.49796662642837Q344.05246745000613 439.2627825686741 350.3219621275556 443.19291356057073Q356.62264832091364 447.1230445524674 364.48291030470693 447.1230445524674L364.48291030470693 447.1230445524674Q376.36687782782303 447.1230445524674 382.2308827998593 439.82422985323075Q388.0636962560868 432.5254151539941 388.0636962560868 415.6819966172942L388.0636962560868 415.6819966172942L388.0636962560868 313.4985908279815L406.9345633203525 313.4985908279815L406.9345633203525 417.45991301839035Q406.9345633203525 426.9109423084275 404.56400811889097 435.33265157677744Q402.1934529174295 443.7543608451274 397.38995948288914 450.0238555226768Q392.5552745325401 456.3245417160349 384.78858709617293 459.9115660340358Q377.05309117561444 463.49859035203673 366.2608267058031 463.49859035203673Z " fill="white" transform="matrix(0.626222058124309,0,0,0.6262220581243089,0,56.71361018968291)"/><path d="M645.3698999693939 431.8150535216479L645.3698999693939 431.8150535216479Q625.6095547182831 431.8150535216479 616.2764198991144 414.935029781716L616.2764198991144 414.935029781716L625.9221477505041 408.19195151523525Q629.472311473585 414.4661402333846 633.9602542933288 417.2794775233732Q638.4705251868027 420.0928148133619 644.09719976678 420.0928148133619L644.09719976678 420.0928148133619Q652.6041958579361 420.0928148133619 656.8018737191891 414.8680455605258Q660.9772235067119 409.64327630768975 660.9772235067119 397.58611649345266L660.9772235067119 397.58611649345266L660.9772235067119 324.43934695374776L674.4857081134035 324.43934695374776L674.4857081134035 398.8588166960666Q674.4857081134035 405.6242230362774 672.7887745099182 411.6528029433959Q671.091840906433 417.6813828505144 667.6533175520024 422.1693256702582Q664.1924661238418 426.6795965637321 658.6327757650547 429.24732504269Q653.0954134799977 431.8150535216479 645.3698999693939 431.8150535216479ZM733.3201823921344 431.8150535216479L733.3201823921344 431.8150535216479Q725.4383723654202 431.8150535216479 718.6059818040192 429.00171623165926Q711.7735912426181 426.18837894167063 706.7051185058925 420.96360968883454Q701.636645769167 415.73884043599844 698.7563242579881 408.19195151523525Q695.8536746730791 400.64506259447205 695.8536746730791 390.9993347430824L695.8536746730791 390.9993347430824Q695.8536746730791 381.3536068916927 698.8233084791783 373.71740567600926Q701.8152703590075 366.08120446032575 706.7051185058925 360.76712291256945Q711.6172947265077 355.4530413648131 717.891483444657 352.6397040748244Q724.1433440890762 349.8263667848358 730.908750429287 349.8263667848358L730.908750429287 349.8263667848358Q738.2993428339397 349.8263667848358 744.1716262249478 352.4164233375237Q750.0439096159558 354.98415181648164 753.9736505924479 359.8070157421765Q757.9033915689399 364.6298796678713 760.0022304995664 371.37295793435203Q762.1010694301929 378.13836427456283 762.1010694301929 386.48906384960856L762.1010694301929 386.48906384960856Q762.1010694301929 388.58790278023497 762.0117571352725 390.5974294159412Q761.9224448403523 392.60695605164733 761.6098518081313 394.03595277037175L761.6098518081313 394.03595277037175L708.8709416577092 394.03595277037175Q709.6747523119916 406.5843302066703 716.6857674632332 413.90793839013287Q723.6744545407447 421.2092184998653 734.9278037006993 421.2092184998653L734.9278037006993 421.2092184998653Q740.5544782806767 421.2092184998653 745.2880299114512 419.5346129701102Q750.0439096159558 417.8376793666249 754.3755559195891 415.11365437155655L754.3755559195891 415.11365437155655L759.0421233291735 423.77694697882316Q753.8843382975276 426.99218959595305 747.6324776531084 429.4036215588005Q741.3582889349591 431.8150535216479 733.3201823921344 431.8150535216479ZM708.7146451415987 384.5688495088226L708.7146451415987 384.5688495088226L750.5127991642872 384.5688495088226Q750.5127991642872 372.66798621069603 745.4443264275617 366.483109787467Q740.3981817645662 360.2759052905079 731.2213434615079 360.2759052905079L731.2213434615079 360.2759052905079Q727.0459936739851 360.2759052905079 723.2725492136035 361.88352659907287Q719.4991047532219 363.4911479076378 716.4401586522025 366.6394063035775Q713.381212551183 369.7653366257871 711.3716859154769 374.275607519261Q709.3621592797707 378.7635503390048 708.7146451415987 384.5688495088226ZM796.8212240804496 429.894839180862L783.625332505979 429.894839180862L783.625332505979 362.53104073724484L773.0194974841964 362.53104073724484L773.0194974841964 352.5727198536342L783.625332505979 351.76890919935175L783.625332505979 339.37682827916365Q783.625332505979 327.31966846492656 789.1850228647662 320.42029368233534Q794.7223851498231 313.49859082601404 806.4669519318393 313.49859082601404L806.4669519318393 313.49859082601404Q810.1510840973006 313.49859082601404 813.4556390093508 314.2354172591063Q816.760193921401 314.94991561846854 819.4842189164693 316.06631930497196L819.4842189164693 316.06631930497196L816.5815693315604 326.20326477842315Q812.249923027927 324.28305043763726 807.7396521344532 324.28305043763726L807.7396521344532 324.28305043763726Q796.8212240804496 324.28305043763726 796.8212240804496 339.37682827916365L796.8212240804496 339.37682827916365L796.8212240804496 351.76890919935175L813.3663267144304 351.76890919935175L813.3663267144304 362.53104073724484L796.8212240804496 362.53104073724484L796.8212240804496 429.894839180862ZM843.754835061054 429.894839180862L830.5812715603134 429.894839180862L830.5812715603134 362.53104073724484L819.9754365385309 362.53104073724484L819.9754365385309 352.5727198536342L830.5812715603134 351.76890919935175L830.5812715603134 339.37682827916365Q830.5812715603134 327.31966846492656 836.1186338453705 320.42029368233534Q841.6783242041577 313.49859082601404 853.4005629124437 313.49859082601404L853.4005629124437 313.49859082601404Q857.1070231516351 313.49859082601404 860.3892499899551 314.2354172591063Q863.6938049020054 314.94991561846854 866.4178298970737 316.06631930497196L866.4178298970737 316.06631930497196L863.5375083858949 326.20326477842315Q859.1835340085314 324.28305043763726 854.6955911887876 324.28305043763726L854.6955911887876 324.28305043763726Q843.754835061054 324.28305043763726 843.754835061054 339.37682827916365L843.754835061054 339.37682827916365L843.754835061054 351.76890919935175L860.322265768765 351.76890919935175L860.322265768765 362.53104073724484L843.754835061054 362.53104073724484L843.754835061054 429.894839180862ZM888.4556386686514 429.894839180862L875.2597470941809 429.894839180862L875.2597470941809 351.76890919935175L886.2005032219145 351.76890919935175L887.3169069084179 365.9025798704852L887.8081245304795 365.9025798704852Q891.8271778018918 358.5119874658325 897.5431646767893 354.18034116219917Q903.2368234779569 349.8263667848358 910.0022298181677 349.8263667848358L910.0022298181677 349.8263667848358Q914.646469154022 349.8263667848358 918.3529293932133 351.4339880934007L918.3529293932133 351.4339880934007L915.7852009142555 363.02225835930636Q913.8426584997394 362.3747442211344 912.2350371911746 362.0621511889134Q910.6274158826096 361.72723008296236 908.2159839197622 361.72723008296236L908.2159839197622 361.72723008296236Q903.2368234779569 361.72723008296236 897.8557577090103 365.7462833543747Q892.4746919400638 369.7653366257871 888.4556386686514 379.7459855831278L888.4556386686514 379.7459855831278L888.4556386686514 429.894839180862ZM961.1111905862948 431.8150535216479L961.1111905862948 431.8150535216479Q953.2293805595806 431.8150535216479 946.3969899981796 429.00171623165926Q939.5645994367786 426.18837894167063 934.5184547737831 420.96360968883454Q929.4499820370575 415.73884043599844 926.5473324521486 408.19195151523525Q923.6670109409697 400.64506259447205 923.6670109409697 390.9993347430824L923.6670109409697 390.9993347430824Q923.6670109409697 381.3536068916927 926.6366447470689 373.71740567600926Q929.606278553168 366.08120446032575 934.5184547737831 360.76712291256945Q939.4083029206681 355.4530413648131 945.6824916388174 352.6397040748244Q951.9566803569667 349.8263667848358 958.6997586234475 349.8263667848358L958.6997586234475 349.8263667848358Q966.0903510281001 349.8263667848358 971.9626344191082 352.4164233375237Q977.8349178101163 354.98415181648164 981.7646587866084 359.8070157421765Q985.7167278368305 364.6298796678713 987.7932386937268 371.37295793435203Q989.8920776243533 378.13836427456283 989.8920776243533 386.48906384960856L989.8920776243533 386.48906384960856Q989.8920776243533 388.58790278023497 989.8027653294331 390.5974294159412Q989.7357811082429 392.60695605164733 989.4008600022919 394.03595277037175L989.4008600022919 394.03595277037175L936.6842779255996 394.03595277037175Q937.4880885798823 406.5843302066703 944.4767756573938 413.90793839013287Q951.4654627349051 421.2092184998653 962.7188118948598 421.2092184998653L962.7188118948598 421.2092184998653Q968.3454864748371 421.2092184998653 973.1013661793418 419.5346129701102Q977.8349178101163 417.8376793666249 982.1665641137496 415.11365437155655L982.1665641137496 415.11365437155655L986.833131523334 423.77694697882316Q981.6976745654181 426.99218959595305 975.4234858472689 429.4036215588005Q969.1492971291195 431.8150535216479 961.1111905862948 431.8150535216479ZM936.5279814094893 384.5688495088226L936.5279814094893 384.5688495088226L978.3261354321778 384.5688495088226Q978.3261354321778 372.66798621069603 973.2576626954523 366.483109787467Q968.1891899587266 360.2759052905079 959.0346797293985 360.2759052905079L959.0346797293985 360.2759052905079Q954.8370018681455 360.2759052905079 951.0635574077639 361.88352659907287Q947.2901129473823 363.4911479076378 944.2311668463631 366.6394063035775Q941.1722207453436 369.7653366257871 939.1626941096374 374.275607519261Q937.1531674739311 378.7635503390048 936.5279814094893 384.5688495088226ZM1011.2823722577591 463.4985901446154L1011.2823722577591 463.4985901446154Q1008.5360191889607 463.4985901446154 1006.2808837422238 463.0966848174741Q1004.0480763692169 462.69477949033285 1002.105533954701 461.89096883605043L1002.105533954701 461.89096883605043L1004.6732624336588 451.44143033037824Q1005.9682907100027 451.75402336259924 1007.5759120185677 452.15592868974045Q1009.1835333271326 452.55783401688166 1010.6348581195871 452.55783401688166L1010.6348581195871 452.55783401688166Q1017.3779363860679 452.55783401688166 1021.6425984685111 447.82428238610714Q1025.907260550954 443.0684026816025 1028.3186925138016 435.83410679306024L1028.3186925138016 435.83410679306024L1030.082610338477 430.0511356969725L998.7339948214606 351.76890919935175L1012.3987759442625 351.76890919935175L1028.3186925138016 395.01838801449475Q1030.082610338477 400.1538449724105 1032.0921369741832 405.8698318473081Q1034.1016636098893 411.56349064847564 1035.8655814345648 417.03386871234244L1035.8655814345648 417.03386871234244L1036.5130955727368 417.03386871234244Q1038.2770133974122 411.71978716458614 1039.884634705977 405.93681606849833Q1041.492256014542 400.1538449724105 1043.099877323107 395.01838801449475L1043.099877323107 395.01838801449475L1057.09957955186 351.76890919935175L1069.9605500203795 351.76890919935175L1040.532148844149 436.32532441512177Q1038.4333099135226 442.1082955112096 1035.8655814345648 447.0874559530149Q1033.2978529556067 452.08894446855027 1029.7700173062558 455.70609241282136Q1026.219853583175 459.3232403570925 1021.7319107634313 461.3997512139889Q1017.2216398699575 463.4985901446154 1011.2823722577591 463.4985901446154ZM1099.7015442288312 429.894839180862L1086.34935613825 429.894839180862L1086.34935613825 324.43934695374776L1119.3055929638313 324.43934695374776Q1127.343699506656 324.43934695374776 1134.176090068057 325.9576559673924Q1141.008480629458 327.49829305476715 1145.920656850073 331.026128704118Q1150.8105049969581 334.5539643534688 1153.5568580657566 340.1806389334461Q1156.280883060825 345.8073135134234 1156.280883060825 354.02404464608867L1156.280883060825 354.02404464608867Q1156.280883060825 366.39379749254675 1149.8503978265653 373.78438989719945Q1143.4199125923055 381.1749823018522 1132.4791564645718 383.92133537065064L1132.4791564645718 383.92133537065064L1159.3398291618444 429.894839180862L1144.223723246588 429.894839180862L1118.8143753417698 385.3726601631051L1099.7015442288312 385.3726601631051L1099.7015442288312 429.894839180862ZM1099.7015442288312 335.20147849164084L1099.7015442288312 374.4319040353714L1117.3853786230454 374.4319040353714Q1129.7551314695033 374.4319040353714 1136.3419132198737 369.3634312986459Q1142.928694970244 364.2949585619203 1142.928694970244 354.02404464608867L1142.928694970244 354.02404464608867Q1142.928694970244 343.5745061404166 1136.3419132198737 339.37682827916365Q1129.7551314695033 335.20147849164084 1117.3853786230454 335.20147849164084L1117.3853786230454 335.20147849164084L1099.7015442288312 335.20147849164084ZM1206.6083612484 431.8150535216479L1206.6083612484 431.8150535216479Q1198.7265512216854 431.8150535216479 1191.8941606602843 429.00171623165926Q1185.0617700988837 426.18837894167063 1179.993297362158 420.96360968883454Q1174.9248246254324 415.73884043599844 1172.0445031142535 408.19195151523525Q1169.1418535293446 400.64506259447205 1169.1418535293446 390.9993347430824L1169.1418535293446 390.9993347430824Q1169.1418535293446 381.3536068916927 1172.1114873354436 373.71740567600926Q1175.0811211415428 366.08120446032575 1179.993297362158 360.76712291256945Q1184.905473582773 355.4530413648131 1191.1573342271922 352.6397040748244Q1197.4315229453414 349.8263667848358 1204.1969292855524 349.8263667848358L1204.1969292855524 349.8263667848358Q1211.587521690205 349.8263667848358 1217.4598050812133 352.4164233375237Q1223.309760398491 354.98415181648164 1227.2618294487133 359.8070157421765Q1231.1915704252053 364.6298796678713 1233.2904093558318 371.37295793435203Q1235.3669202127282 378.13836427456283 1235.3669202127282 386.48906384960856L1235.3669202127282 386.48906384960856Q1235.3669202127282 388.58790278023497 1235.2999359915382 390.5974294159412Q1235.2106236966176 392.60695605164733 1234.8980306643969 394.03595277037175L1234.8980306643969 394.03595277037175L1182.1591205139746 394.03595277037175Q1182.962931168257 406.5843302066703 1189.9516182457687 413.90793839013287Q1196.96263339701 421.2092184998653 1208.2159825569647 421.2092184998653L1208.2159825569647 421.2092184998653Q1213.842657136942 421.2092184998653 1218.5762087677167 419.5346129701102Q1223.309760398491 417.8376793666249 1227.6637347758544 415.11365437155655L1227.6637347758544 415.11365437155655L1232.3303021854388 423.77694697882316Q1227.172517153793 426.99218959595305 1220.8983284356436 429.4036215588005Q1214.6464677912245 431.8150535216479 1206.6083612484 431.8150535216479ZM1182.0028239978642 384.5688495088226L1182.0028239978642 384.5688495088226L1223.8009780205527 384.5688495088226Q1223.8009780205527 372.66798621069603 1218.732505283827 366.483109787467Q1213.6640325471014 360.2759052905079 1204.5095223177732 360.2759052905079L1204.5095223177732 360.2759052905079Q1200.3341725302505 360.2759052905079 1196.560728069869 361.88352659907287Q1192.7649555357573 363.4911479076378 1189.728337508468 366.6394063035775Q1186.6693914074485 369.7653366257871 1184.6598647717424 374.275607519261Q1182.6503381360362 378.7635503390048 1182.0028239978642 384.5688495088226ZM1286.341912538475 431.8150535216479L1286.341912538475 431.8150535216479Q1278.4601025117606 431.8150535216479 1271.6277119503598 429.00171623165926Q1264.7953213889589 426.18837894167063 1259.7268486522332 420.96360968883454Q1254.6583759155076 415.73884043599844 1251.7780544043287 408.19195151523525Q1248.8754048194198 400.64506259447205 1248.8754048194198 390.9993347430824L1248.8754048194198 390.9993347430824Q1248.8754048194198 381.3536068916927 1251.8450386255188 373.71740567600926Q1254.8370005053482 366.08120446032575 1259.7268486522332 360.76712291256945Q1264.6390248728483 355.4530413648131 1270.9132135909974 352.6397040748244Q1277.1650742354168 349.8263667848358 1283.9304805756276 349.8263667848358L1283.9304805756276 349.8263667848358Q1291.3210729802802 349.8263667848358 1297.1933563712885 352.4164233375237Q1303.0656397622963 354.98415181648164 1306.9953807387885 359.8070157421765Q1310.9251217152805 364.6298796678713 1313.023960645907 371.37295793435203Q1315.1227995765337 378.13836427456283 1315.1227995765337 386.48906384960856L1315.1227995765337 386.48906384960856Q1315.1227995765337 388.58790278023497 1315.0334872816131 390.5974294159412Q1314.944174986693 392.60695605164733 1314.631581954472 394.03595277037175L1314.631581954472 394.03595277037175L1261.8926718040498 394.03595277037175Q1262.6964824583322 406.5843302066703 1269.707497609574 413.90793839013287Q1276.6961846870852 421.2092184998653 1287.94953384704 421.2092184998653L1287.94953384704 421.2092184998653Q1293.576208427017 421.2092184998653 1298.309760057792 419.5346129701102Q1303.0656397622963 417.8376793666249 1307.3972860659298 415.11365437155655L1307.3972860659298 415.11365437155655L1312.0638534755142 423.77694697882316Q1306.9060684438682 426.99218959595305 1300.654207799449 429.4036215588005Q1294.3800190812997 431.8150535216479 1286.341912538475 431.8150535216479ZM1261.7363752879394 384.5688495088226L1261.7363752879394 384.5688495088226L1303.5345293106277 384.5688495088226Q1303.5345293106277 372.66798621069603 1298.4660565739023 366.483109787467Q1293.4199119109069 360.2759052905079 1284.2430736078484 360.2759052905079L1284.2430736078484 360.2759052905079Q1280.0677238203255 360.2759052905079 1276.2942793599439 361.88352659907287Q1272.5208348995623 363.4911479076378 1269.461888798543 366.6394063035775Q1266.4029426975237 369.7653366257871 1264.3934160618176 374.275607519261Q1262.3838894261114 378.7635503390048 1261.7363752879394 384.5688495088226ZM1361.096303386745 431.8150535216479L1361.096303386745 431.8150535216479Q1346.2927905037093 431.8150535216479 1337.5401856015224 421.2092184998653Q1328.7875806993354 410.60338347808266 1328.7875806993354 390.9993347430824L1328.7875806993354 390.9993347430824Q1328.7875806993354 381.5099034078032 1331.6009179893242 373.8737021921197Q1334.4142552793128 366.23750097643625 1339.058494615167 360.9234194286799Q1343.7250620247512 355.6316659546536 1349.8429542267902 352.7290163697447Q1355.938518355099 349.8263667848358 1362.7039246953098 349.8263667848358L1362.7039246953098 349.8263667848358Q1369.4470029617903 349.8263667848358 1374.4261634035959 352.2377987476832Q1379.427651919131 354.6492307105306 1384.5631088770472 358.8469085717835L1384.5631088770472 358.8469085717835L1383.915594738875 345.4947204812025L1383.915594738875 315.44113324053006L1397.267782829456 315.44113324053006L1397.267782829456 429.894839180862L1386.3270267017226 429.894839180862L1385.2106230152192 420.74032895153385L1384.7194053931573 420.74032895153385Q1380.052837983573 425.2282717712776 1374.0242580764545 428.5328266833278Q1367.995678169336 431.8150535216479 1361.096303386745 431.8150535216479ZM1363.9766248979238 420.74032895153385L1363.9766248979238 420.74032895153385Q1369.4470029617903 420.74032895153385 1374.2698668874853 418.0832881776557Q1379.0927308131802 415.4262474037775 1383.915594738875 409.9558693399107L1383.915594738875 409.9558693399107L1383.915594738875 369.1178224876151Q1378.9364342970696 364.6298796678713 1374.3591791824056 362.7766495482756Q1369.7819240677416 360.9234194286799 1364.9590601420466 360.9234194286799L1364.9590601420466 360.9234194286799Q1360.2924927324623 360.9234194286799 1356.1841271661299 363.08924258049655Q1352.098089673527 365.2773938060433 1349.0391435725078 369.2071347825354Q1345.9801974714885 373.1368757590275 1344.216279646813 378.6072538228943Q1342.4523618221374 384.0776318867611 1342.4523618221374 390.82071015324186L1342.4523618221374 390.82071015324186Q1342.4523618221374 404.97670889810536 1348.0790364021148 412.8585189248196Q1353.7057109820921 420.74032895153385 1363.9766248979238 420.74032895153385Z " fill="hsl(329, 78%, 60%)" transform="matrix(0.626222058124309,0,0,0.6262220581243089,0,56.71361018968291)"/></g></svg>